<?xml version="1.0" encoding="UTF-8" standalone="no"?>
<!DOCTYPE svg PUBLIC "-//W3C//DTD SVG 1.1//EN" "http://www.w3.org/Graphics/SVG/1.1/DTD/svg11.dtd">
<svg width="100%" height="100%" viewBox="0 0 128 128" version="1.1" xmlns="http://www.w3.org/2000/svg"
  xmlns:xlink="http://www.w3.org/1999/xlink" xml:space="preserve" xmlns:serif="http://www.serif.com/"
  style="fill-rule:evenodd;clip-rule:evenodd;stroke-linejoin:round;stroke-miterlimit:2;">
  <path
    d="M63.78,9.386c30.02,0 54.393,24.373 54.393,54.394c-0,30.02 -24.373,54.393 -54.393,54.393c-30.021,-0 -54.394,-24.373 -54.394,-54.393c0,-30.021 24.373,-54.394 54.394,-54.394Zm29.096,68.396l-0,0.352l0.008,0.704l-0,0.248c-0,0.597 -0.008,0.954 -0.024,1.072c-0.043,0.405 -0.174,0.722 -0.392,0.952c-0.422,0.448 -1.059,0.672 -1.912,0.672c-0.88,-0 -1.504,-0.232 -1.872,-0.696c-0.224,-0.283 -0.336,-0.702 -0.336,-1.256c-0,-0.048 0.008,-0.344 0.024,-0.888c0.01,-0.363 0.016,-0.654 0.016,-0.872l-0,-0.312c-0,-0.288 -0.078,-0.432 -0.232,-0.432c-0.038,-0 -0.096,0.009 -0.176,0.028c-0.08,0.018 -0.144,0.028 -0.192,0.028c-0.123,-0 -0.226,-0.05 -0.308,-0.148c-0.083,-0.099 -0.124,-0.223 -0.124,-0.372c-0,-0.182 0.057,-0.326 0.172,-0.432c0.114,-0.107 0.265,-0.16 0.452,-0.16c0.117,-0 0.293,0.013 0.528,0.04c0.234,0.026 0.41,0.04 0.528,0.04c0.101,-0 0.252,-0.014 0.452,-0.04c0.2,-0.027 0.35,-0.04 0.452,-0.04c0.16,-0 0.288,0.053 0.384,0.16c0.096,0.106 0.144,0.25 0.144,0.432c-0,0.32 -0.11,0.48 -0.328,0.48l-0.08,-0c-0.027,-0.006 -0.062,-0.008 -0.104,-0.008c-0.091,-0 -0.144,0.056 -0.16,0.168l-0,2.112c-0,0.368 0.062,0.628 0.188,0.78c0.125,0.152 0.337,0.228 0.636,0.228c0.298,-0 0.516,-0.079 0.652,-0.236c0.136,-0.158 0.204,-0.415 0.204,-0.772l-0,-1.832c-0,-0.198 -0.011,-0.322 -0.032,-0.372c-0.022,-0.051 -0.07,-0.076 -0.144,-0.076c-0.038,-0 -0.07,0.002 -0.096,0.008l-0.08,-0c-0.219,-0 -0.328,-0.163 -0.328,-0.488c-0,-0.176 0.049,-0.318 0.148,-0.424c0.098,-0.107 0.228,-0.16 0.388,-0.16c0.101,-0 0.254,0.013 0.46,0.04c0.205,0.026 0.358,0.04 0.46,0.04c0.117,-0 0.293,-0.014 0.528,-0.04c0.234,-0.027 0.41,-0.04 0.528,-0.04c0.181,-0 0.326,0.053 0.436,0.16c0.109,0.106 0.164,0.25 0.164,0.432c-0,0.154 -0.042,0.28 -0.124,0.376c-0.083,0.096 -0.191,0.144 -0.324,0.144c-0.043,-0 -0.103,-0.01 -0.18,-0.028c-0.078,-0.019 -0.135,-0.028 -0.172,-0.028c-0.155,-0 -0.232,0.152 -0.232,0.456Zm-20.392,-1.624c0.56,-0 1.026,0.189 1.4,0.568c0.048,-0.315 0.208,-0.472 0.48,-0.472c0.33,-0 0.496,0.16 0.496,0.48c-0,0.053 -0.011,0.16 -0.032,0.32c-0.032,0.24 -0.048,0.402 -0.048,0.488c-0,0.096 0.005,0.168 0.016,0.216c0.01,0.17 0.016,0.266 0.016,0.288c-0,0.138 -0.062,0.254 -0.184,0.348c-0.123,0.093 -0.28,0.14 -0.472,0.14c-0.31,-0 -0.496,-0.152 -0.56,-0.456c-0.064,-0.304 -0.156,-0.514 -0.276,-0.628c-0.12,-0.115 -0.311,-0.172 -0.572,-0.172c-0.347,-0 -0.615,0.161 -0.804,0.484c-0.19,0.322 -0.284,0.78 -0.284,1.372c-0,0.501 0.092,0.892 0.276,1.172c0.184,0.28 0.438,0.42 0.764,0.42c0.208,-0 0.38,-0.06 0.516,-0.18c0.136,-0.12 0.204,-0.271 0.204,-0.452c-0,-0.224 -0.094,-0.336 -0.28,-0.336l-0.048,-0c-0.022,0.005 -0.04,0.008 -0.056,0.008c-0.086,0.01 -0.134,0.016 -0.144,0.016c-0.107,-0 -0.198,-0.047 -0.272,-0.14c-0.075,-0.094 -0.112,-0.21 -0.112,-0.348c-0,-0.16 0.053,-0.288 0.16,-0.384c0.106,-0.096 0.245,-0.144 0.416,-0.144c0.112,-0 0.281,0.014 0.508,0.044c0.226,0.029 0.398,0.044 0.516,0.044c0.176,-0 0.37,-0.014 0.584,-0.04c0.17,-0.022 0.288,-0.032 0.352,-0.032c0.17,-0 0.308,0.052 0.412,0.156c0.104,0.104 0.156,0.244 0.156,0.42c-0,0.154 -0.038,0.284 -0.112,0.388c-0.075,0.104 -0.168,0.156 -0.28,0.156l-0.192,-0.016c-0.144,-0 -0.216,0.12 -0.216,0.36c-0,0.101 0.002,0.208 0.008,0.32l0.016,0.344c0.005,0.117 0.008,0.229 0.008,0.336c-0,0.357 -0.198,0.536 -0.592,0.536c-0.374,-0 -0.56,-0.131 -0.56,-0.392l-0,-0.048c-0.368,0.293 -0.787,0.44 -1.256,0.44c-0.411,-0 -0.798,-0.108 -1.16,-0.324c-0.363,-0.216 -0.627,-0.498 -0.792,-0.844c-0.214,-0.443 -0.32,-0.958 -0.32,-1.544c-0,-0.896 0.208,-1.606 0.624,-2.128c0.416,-0.523 0.981,-0.784 1.696,-0.784Zm12.024,5.624c-0.811,-0 -1.438,-0.246 -1.88,-0.736c-0.443,-0.491 -0.664,-1.187 -0.664,-2.088c-0,-0.87 0.22,-1.554 0.66,-2.052c0.44,-0.499 1.046,-0.748 1.82,-0.748c0.81,-0 1.442,0.242 1.896,0.728c0.453,0.485 0.68,1.162 0.68,2.032c-0,0.901 -0.22,1.604 -0.66,2.108c-0.44,0.504 -1.058,0.756 -1.852,0.756Zm-3.912,-3.216c-0.155,0.106 -0.398,0.197 -0.728,0.272c0.384,0.064 0.656,0.177 0.816,0.34c0.16,0.162 0.24,0.404 0.24,0.724c-0,0.096 -0.003,0.189 -0.008,0.28l-0,0.096c-0,0.218 0.064,0.328 0.192,0.328c0.032,-0 0.081,-0.007 0.148,-0.02c0.066,-0.014 0.116,-0.02 0.148,-0.02c0.117,-0 0.212,0.049 0.284,0.148c0.072,0.098 0.108,0.228 0.108,0.388c-0,0.176 -0.052,0.316 -0.156,0.42c-0.104,0.104 -0.242,0.156 -0.412,0.156c-0.059,-0 -0.15,-0.007 -0.272,-0.02c-0.123,-0.014 -0.214,-0.02 -0.272,-0.02c-0.064,-0 -0.159,0.006 -0.284,0.02c-0.126,0.013 -0.22,0.02 -0.284,0.02c-0.198,-0 -0.356,-0.082 -0.476,-0.244c-0.12,-0.163 -0.18,-0.378 -0.18,-0.644c-0,-0.027 0.002,-0.046 0.008,-0.056l0.016,-0.464l-0,-0.056c-0,-0.278 -0.071,-0.47 -0.212,-0.576c-0.142,-0.107 -0.396,-0.16 -0.764,-0.16c-0.15,-0 -0.243,0.04 -0.28,0.12c-0.027,0.053 -0.04,0.152 -0.04,0.296l-0,0.184c-0,0.362 0.066,0.544 0.2,0.544c0.037,-0 0.094,-0.01 0.172,-0.028c0.077,-0.019 0.137,-0.028 0.18,-0.028c0.112,-0 0.206,0.05 0.284,0.152c0.077,0.101 0.116,0.226 0.116,0.376c-0,0.389 -0.187,0.584 -0.56,0.584c-0.128,-0 -0.302,-0.014 -0.52,-0.04c-0.219,-0.027 -0.408,-0.04 -0.568,-0.04c-0.171,-0 -0.368,0.013 -0.592,0.04c-0.224,0.026 -0.414,0.04 -0.568,0.04c-0.39,-0 -0.584,-0.195 -0.584,-0.584c-0,-0.15 0.041,-0.275 0.124,-0.376c0.082,-0.102 0.185,-0.152 0.308,-0.152c0.048,-0 0.114,0.009 0.2,0.028c0.085,0.018 0.146,0.028 0.184,0.028c0.144,-0 0.216,-0.182 0.216,-0.544l-0,-2.216c-0,-0.171 -0.006,-0.28 -0.016,-0.328c-0.027,-0.139 -0.094,-0.208 -0.2,-0.208c-0.043,-0 -0.106,0.009 -0.188,0.028c-0.083,0.018 -0.148,0.028 -0.196,0.028c-0.123,-0 -0.226,-0.051 -0.308,-0.152c-0.083,-0.102 -0.124,-0.227 -0.124,-0.376c-0,-0.171 0.052,-0.312 0.156,-0.424c0.104,-0.112 0.238,-0.168 0.404,-0.168c0.032,-0 0.056,0.002 0.072,0.008l0.568,0.056c0.16,0.016 0.33,0.024 0.512,0.024c0.314,-0 0.712,-0.016 1.192,-0.048c0.32,-0.022 0.557,-0.032 0.712,-0.032c0.506,-0 0.908,0.126 1.204,0.38c0.296,0.253 0.444,0.598 0.444,1.036c-0,0.4 -0.139,0.693 -0.416,0.88Zm16.16,1.288c-0.144,-0.006 -0.216,0.074 -0.216,0.24l-0,0.256c-0,0.181 0.08,0.272 0.24,0.272c0.064,-0 0.144,-0.008 0.24,-0.024c0.117,-0.022 0.216,-0.032 0.296,-0.032c0.133,-0 0.24,0.048 0.32,0.144c0.08,0.096 0.12,0.224 0.12,0.384c-0,0.176 -0.054,0.317 -0.16,0.424c-0.107,0.106 -0.246,0.16 -0.416,0.16c-0.15,-0 -0.371,-0.014 -0.664,-0.04c-0.294,-0.027 -0.515,-0.04 -0.664,-0.04c-0.23,-0 -0.422,0.008 -0.576,0.024l-0.392,0.04c-0.107,0.01 -0.179,0.016 -0.216,0.016c-0.171,-0 -0.308,-0.054 -0.412,-0.16c-0.104,-0.107 -0.156,-0.248 -0.156,-0.424c-0,-0.15 0.041,-0.275 0.124,-0.376c0.082,-0.102 0.185,-0.152 0.308,-0.152c0.048,-0 0.114,0.009 0.2,0.028c0.085,0.018 0.146,0.028 0.184,0.028c0.144,-0 0.216,-0.182 0.216,-0.544l-0,-2.216c-0,-0.171 -0.006,-0.28 -0.016,-0.328c-0.027,-0.139 -0.094,-0.208 -0.2,-0.208c-0.043,-0 -0.106,0.009 -0.188,0.028c-0.083,0.018 -0.148,0.028 -0.196,0.028c-0.123,-0 -0.226,-0.051 -0.308,-0.152c-0.083,-0.102 -0.124,-0.227 -0.124,-0.376c-0,-0.176 0.053,-0.319 0.16,-0.428c0.106,-0.11 0.245,-0.164 0.416,-0.164l0.024,-0c0.01,0.005 0.021,0.008 0.032,0.008c0.128,-0 0.322,0.013 0.584,0.04c0.261,0.026 0.458,0.04 0.592,0.04c0.256,-0 0.536,-0.011 0.84,-0.032c0.384,-0.027 0.602,-0.04 0.656,-0.04c0.581,-0 1.052,0.164 1.412,0.492c0.36,0.328 0.54,0.758 0.54,1.292c-0,0.554 -0.186,0.994 -0.556,1.32c-0.371,0.325 -0.876,0.488 -1.516,0.488c-0.054,-0 -0.155,-0.003 -0.304,-0.008l-0.224,-0.008Zm-12.256,-2.576c-0.694,-0 -1.04,0.565 -1.04,1.696c-0,0.538 0.066,0.938 0.2,1.2c0.165,0.325 0.442,0.488 0.832,0.488c0.688,-0 1.032,-0.55 1.032,-1.648c-0,-0.608 -0.082,-1.05 -0.244,-1.324c-0.163,-0.275 -0.423,-0.412 -0.78,-0.412Zm12.04,1.224c-0,0.149 0.013,0.241 0.04,0.276c0.026,0.034 0.098,0.054 0.216,0.06l0.128,0.008c0.629,0.037 0.944,-0.211 0.944,-0.744c-0,-0.512 -0.283,-0.768 -0.848,-0.768c-0.139,-0 -0.235,0.008 -0.288,0.024c-0.096,0.026 -0.155,0.09 -0.176,0.192c-0.011,0.053 -0.016,0.133 -0.016,0.24l-0,0.712Zm-17.76,-1.168c-0.214,-0 -0.352,0.013 -0.416,0.04c-0.118,0.053 -0.176,0.168 -0.176,0.344l-0,0.48c-0,0.122 0.02,0.202 0.06,0.24c0.04,0.037 0.116,0.056 0.228,0.056c0.693,-0 1.04,-0.206 1.04,-0.616c-0,-0.363 -0.246,-0.544 -0.736,-0.544Zm-24.94,-6.524c-2.027,-0 -3.594,-0.614 -4.7,-1.84c-1.107,-1.227 -1.66,-2.967 -1.66,-5.22c-0,-2.174 0.55,-3.884 1.65,-5.13c1.1,-1.247 2.616,-1.87 4.55,-1.87c2.026,-0 3.606,0.606 4.74,1.82c1.133,1.213 1.7,2.906 1.7,5.08c-0,2.253 -0.55,4.01 -1.65,5.27c-1.1,1.26 -2.644,1.89 -4.63,1.89Zm13.28,-14.06c1.4,-0 2.566,0.473 3.5,1.42c0.12,-0.787 0.52,-1.18 1.2,-1.18c0.826,-0 1.24,0.4 1.24,1.2c-0,0.133 -0.027,0.4 -0.08,0.8c-0.08,0.6 -0.12,1.006 -0.12,1.22c-0,0.24 0.013,0.42 0.04,0.54c0.026,0.426 0.04,0.666 0.04,0.72c-0,0.346 -0.154,0.636 -0.46,0.87c-0.307,0.233 -0.7,0.35 -1.18,0.35c-0.774,-0 -1.24,-0.38 -1.4,-1.14c-0.16,-0.76 -0.39,-1.284 -0.69,-1.57c-0.3,-0.287 -0.777,-0.43 -1.43,-0.43c-0.867,-0 -1.537,0.403 -2.01,1.21c-0.474,0.806 -0.71,1.95 -0.71,3.43c-0,1.253 0.23,2.23 0.69,2.93c0.46,0.7 1.096,1.05 1.91,1.05c0.52,-0 0.95,-0.15 1.29,-0.45c0.34,-0.3 0.51,-0.677 0.51,-1.13c-0,-0.56 -0.234,-0.84 -0.7,-0.84l-0.12,-0c-0.054,0.013 -0.1,0.02 -0.14,0.02c-0.214,0.026 -0.334,0.04 -0.36,0.04c-0.267,-0 -0.494,-0.117 -0.68,-0.35c-0.187,-0.234 -0.28,-0.524 -0.28,-0.87c-0,-0.4 0.133,-0.72 0.4,-0.96c0.266,-0.24 0.613,-0.36 1.04,-0.36c0.28,-0 0.703,0.036 1.27,0.11c0.566,0.073 0.996,0.11 1.29,0.11c0.44,-0 0.926,-0.034 1.46,-0.1c0.426,-0.054 0.72,-0.08 0.88,-0.08c0.426,-0 0.77,0.13 1.03,0.39c0.26,0.26 0.39,0.61 0.39,1.05c-0,0.386 -0.094,0.71 -0.28,0.97c-0.187,0.26 -0.42,0.39 -0.7,0.39l-0.48,-0.04c-0.36,-0 -0.54,0.3 -0.54,0.9c-0,0.253 0.006,0.52 0.02,0.8l0.04,0.86c0.013,0.293 0.02,0.573 0.02,0.84c-0,0.893 -0.494,1.34 -1.48,1.34c-0.934,-0 -1.4,-0.327 -1.4,-0.98l-0,-0.12c-0.92,0.733 -1.967,1.1 -3.14,1.1c-1.027,-0 -1.994,-0.27 -2.9,-0.81c-0.907,-0.54 -1.567,-1.244 -1.98,-2.11c-0.534,-1.107 -0.8,-2.394 -0.8,-3.86c-0,-2.24 0.52,-4.014 1.56,-5.32c1.04,-1.307 2.453,-1.96 4.24,-1.96Zm15.379,2.998l-0.079,-0.017c-0.194,-0.041 -0.34,-0.061 -0.44,-0.061c-0.36,-0 -0.54,0.446 -0.54,1.34l-0,5.54c-0,0.906 0.18,1.36 0.54,1.36c0.1,-0 0.246,-0.021 0.44,-0.062l0.079,-0.017c0.194,-0.041 0.341,-0.061 0.441,-0.061c0.306,-0 0.563,0.126 0.77,0.38c0.206,0.253 0.31,0.566 0.31,0.94c-0,0.426 -0.13,0.78 -0.39,1.06c-0.26,0.28 -0.59,0.42 -0.99,0.42c-0.08,-0 -0.14,-0.007 -0.18,-0.02l-1.26,-0.16c-0.32,-0.04 -0.674,-0.06 -1.06,-0.06c-0.6,-0 -1.227,0.033 -1.88,0.1c-0.787,0.08 -1.3,0.12 -1.54,0.12c-0.427,-0 -0.774,-0.134 -1.04,-0.4c-0.267,-0.267 -0.4,-0.62 -0.4,-1.06c-0,-0.387 0.103,-0.704 0.31,-0.95c0.206,-0.247 0.47,-0.37 0.79,-0.37c0.1,-0 0.243,0.02 0.431,0.061l0.077,0.017c0.188,0.041 0.332,0.062 0.432,0.062c0.266,-0 0.433,-0.174 0.5,-0.52c0.026,-0.134 0.04,-0.414 0.04,-0.84l-0,-5.54c-0,-0.427 -0.014,-0.7 -0.04,-0.82c-0.067,-0.347 -0.234,-0.52 -0.5,-0.52c-0.107,-0 -0.264,0.023 -0.47,0.07c-0.207,0.046 -0.37,0.07 -0.49,0.07c-0.307,-0 -0.564,-0.127 -0.77,-0.38c-0.207,-0.254 -0.31,-0.567 -0.31,-0.94c-0,-0.454 0.13,-0.81 0.39,-1.07c0.26,-0.26 0.61,-0.39 1.05,-0.39c0.2,-0 0.666,0.04 1.4,0.12c0.493,0.053 0.973,0.08 1.44,0.08c0.373,-0 0.91,-0.034 1.61,-0.1c0.7,-0.067 1.163,-0.1 1.39,-0.1c0.973,-0 1.46,0.486 1.46,1.46c-0,0.373 -0.104,0.686 -0.31,0.94c-0.207,0.253 -0.464,0.38 -0.77,0.38c-0.1,-0 -0.247,-0.021 -0.441,-0.062Zm-37.473,-2.718l0.034,-0c0.44,-0 0.793,0.13 1.06,0.39c0.266,0.26 0.4,0.616 0.4,1.07c-0,0.373 -0.104,0.686 -0.31,0.94c-0.207,0.253 -0.464,0.38 -0.77,0.38c-0.12,-0 -0.287,-0.024 -0.5,-0.07c-0.214,-0.047 -0.367,-0.07 -0.46,-0.07c-0.36,-0 -0.54,0.446 -0.54,1.34l-0,5.54c-0,0.906 0.173,1.36 0.52,1.36c0.1,-0 0.246,-0.021 0.44,-0.062l0.079,-0.017c0.194,-0.041 0.341,-0.061 0.441,-0.061c0.306,-0 0.566,0.126 0.78,0.38c0.213,0.253 0.32,0.566 0.32,0.94c-0,0.453 -0.134,0.81 -0.4,1.07c-0.267,0.26 -0.62,0.39 -1.06,0.39c-0.254,-0 -0.68,-0.04 -1.28,-0.12c-0.4,-0.054 -0.8,-0.08 -1.2,-0.08c-0.254,-0 -0.627,0.033 -1.12,0.1c-0.494,0.066 -0.867,0.1 -1.12,0.1c-0.4,-0 -0.724,-0.134 -0.97,-0.4c-0.247,-0.267 -0.37,-0.62 -0.37,-1.06c-0,-0.827 0.273,-1.24 0.82,-1.24c0.08,-0 0.14,0.006 0.18,0.02l0.14,-0c0.053,0.013 0.086,0.02 0.1,0.02c0.213,-0 0.34,-0.147 0.38,-0.44c0.013,-0.134 0.02,-0.36 0.02,-0.68l-0,-7.54l-2.78,9.84c-0.24,0.853 -0.634,1.28 -1.18,1.28l-1.28,-0c-0.534,-0 -0.9,-0.38 -1.1,-1.14l-2.66,-9.98l-0,7.54c-0,0.626 0.06,0.98 0.18,1.06c0.04,0.04 0.113,0.06 0.22,0.06c0.026,-0 0.066,-0.007 0.12,-0.02l0.12,-0c0.04,-0.014 0.1,-0.02 0.18,-0.02c0.533,-0 0.8,0.406 0.8,1.22c-0,0.453 -0.12,0.813 -0.36,1.08c-0.24,0.266 -0.56,0.4 -0.96,0.4c-0.187,-0 -0.427,-0.02 -0.72,-0.06c-0.374,-0.054 -0.607,-0.087 -0.7,-0.1c-0.28,-0.027 -0.6,-0.04 -0.96,-0.04c-0.454,-0 -0.834,0.02 -1.14,0.06c-0.827,0.106 -1.24,0.16 -1.24,0.16c-0.414,-0 -0.754,-0.14 -1.02,-0.42c-0.267,-0.28 -0.4,-0.634 -0.4,-1.06c-0,-0.387 0.103,-0.704 0.31,-0.95c0.206,-0.247 0.47,-0.37 0.79,-0.37c0.106,-0 0.263,0.023 0.47,0.07c0.206,0.046 0.363,0.07 0.47,0.07c0.266,-0 0.433,-0.174 0.5,-0.52c0.026,-0.134 0.04,-0.414 0.04,-0.84l-0,-5.54c-0,-0.427 -0.014,-0.7 -0.04,-0.82c-0.067,-0.347 -0.234,-0.52 -0.5,-0.52c-0.107,-0 -0.264,0.023 -0.47,0.07c-0.207,0.046 -0.37,0.07 -0.49,0.07c-0.307,-0 -0.564,-0.127 -0.77,-0.38c-0.207,-0.254 -0.31,-0.567 -0.31,-0.94c-0,-0.974 0.493,-1.46 1.48,-1.46c0.32,-0 0.853,0.033 1.6,0.1c0.746,0.066 1.306,0.1 1.68,0.1c0.6,-0 1.226,-0.04 1.88,-0.12c0.44,-0.054 0.786,-0.08 1.04,-0.08c0.333,-0 0.566,0.08 0.7,0.24c0.133,0.16 0.26,0.493 0.38,1l1.66,7.3l1.74,-7c0.146,-0.587 0.31,-0.99 0.49,-1.21c0.18,-0.22 0.436,-0.33 0.77,-0.33c0.293,-0 0.74,0.033 1.34,0.1c0.6,0.066 1.053,0.1 1.36,0.1c0.32,-0 1.113,-0.054 2.38,-0.16c0.337,-0.025 0.592,-0.039 0.766,-0.04Zm55.316,-0l0.018,-0c0.426,-0 0.773,0.133 1.04,0.4c0.266,0.266 0.4,0.62 0.4,1.06c-0,0.373 -0.107,0.686 -0.32,0.94c-0.214,0.253 -0.474,0.38 -0.78,0.38c-0.12,-0 -0.28,-0.024 -0.48,-0.07c-0.2,-0.047 -0.354,-0.07 -0.46,-0.07c-0.267,-0 -0.44,0.166 -0.52,0.5c-0.027,0.133 -0.04,0.413 -0.04,0.84l-0,8.14c-0,0.88 -0.36,1.32 -1.08,1.32c-0.134,-0 -0.337,-0.01 -0.61,-0.03c-0.274,-0.02 -0.477,-0.03 -0.61,-0.03c-0.014,-0 -0.34,0.013 -0.98,0.04l-0.44,-0c-0.387,-0 -0.674,-0.094 -0.86,-0.28c-0.107,-0.107 -0.26,-0.394 -0.46,-0.86l-3.86,-8.8l-0,6.04c-0,0.906 0.173,1.36 0.52,1.36c0.087,-0 0.218,-0.021 0.394,-0.062l0.071,-0.017c0.176,-0.041 0.307,-0.061 0.395,-0.061c0.28,-0 0.516,0.126 0.71,0.38c0.193,0.253 0.29,0.566 0.29,0.94c-0,0.973 -0.467,1.46 -1.4,1.46c-0.267,-0 -0.707,-0.04 -1.32,-0.12c-0.414,-0.054 -0.827,-0.08 -1.24,-0.08c-0.347,-0 -0.814,0.033 -1.4,0.1c-0.587,0.066 -0.96,0.1 -1.12,0.1c-0.974,-0 -1.46,-0.487 -1.46,-1.46c-0,-0.374 0.103,-0.687 0.31,-0.94c0.206,-0.254 0.463,-0.38 0.77,-0.38c0.12,-0 0.283,0.023 0.49,0.07c0.206,0.046 0.363,0.07 0.47,0.07c0.36,-0 0.54,-0.454 0.54,-1.36l-0,-5.54c-0,-0.894 -0.18,-1.34 -0.54,-1.34c-0.107,-0 -0.264,0.023 -0.47,0.07c-0.207,0.046 -0.37,0.07 -0.49,0.07c-0.307,-0 -0.564,-0.127 -0.77,-0.38c-0.207,-0.254 -0.31,-0.567 -0.31,-0.94c-0,-0.44 0.133,-0.794 0.4,-1.06c0.266,-0.267 0.613,-0.4 1.04,-0.4c0.28,-0 0.686,0.033 1.22,0.1c0.533,0.066 0.953,0.1 1.26,0.1c0.253,-0 0.686,-0.027 1.3,-0.08c0.28,-0.014 0.6,-0.04 0.96,-0.08c0.16,-0.027 0.333,-0.04 0.52,-0.04c0.36,-0 0.64,0.14 0.84,0.42c0.08,0.106 0.226,0.413 0.44,0.92l3.52,8.56l-0,-5.92c-0,-0.894 -0.174,-1.34 -0.52,-1.34c-0.094,-0 -0.23,0.023 -0.41,0.07c-0.18,0.046 -0.317,0.07 -0.41,0.07c-0.28,-0 -0.517,-0.127 -0.71,-0.38c-0.194,-0.254 -0.29,-0.567 -0.29,-0.94c-0,-0.44 0.126,-0.794 0.38,-1.06c0.253,-0.267 0.586,-0.4 1,-0.4c0.213,-0 0.58,0.033 1.1,0.1c0.52,0.066 0.98,0.1 1.38,0.1c0.36,-0 0.78,-0.027 1.26,-0.08c0.697,-0.078 1.138,-0.118 1.322,-0.12Zm-46.522,2.52c-1.734,-0 -2.6,1.413 -2.6,4.24c-0,1.346 0.166,2.346 0.5,3c0.413,0.813 1.106,1.22 2.08,1.22c1.72,-0 2.58,-1.374 2.58,-4.12c-0,-1.52 -0.204,-2.624 -0.61,-3.31c-0.407,-0.687 -1.057,-1.03 -1.95,-1.03Z"
    style="fill:#ffffff;" />
</svg>